<svg width="4207" height="2339" xmlns="http://www.w3.org/2000/svg" xmlns:xlink="http://www.w3.org/1999/xlink" xml:space="preserve" overflow="hidden"><g transform="translate(-761 -789)"><rect x="866" y="1869" width="822" height="368" stroke="#000000" stroke-width="10.3125" stroke-miterlimit="8" fill="#D9D9D9"/><text font-family="Times New Roman,Times New Roman_MSFontService,sans-serif" font-weight="700" font-size="110" transform="matrix(1 0 0 1 966.461 2027)">LiDAR scans</text><text font-family="Times New Roman,Times New Roman_MSFontService,sans-serif" font-weight="700" font-size="110" transform="matrix(1 0 0 1 960.732 2159)">w/ timestamp</text><rect x="866" y="1468" width="822" height="285" stroke="#000000" stroke-width="10.3125" stroke-miterlimit="8" fill="#D9D9D9"/><text font-family="Times New Roman,Times New Roman_MSFontService,sans-serif" font-weight="700" font-size="110" transform="matrix(1 0 0 1 1056.98 1584)">(Aligned) </text><text font-family="Times New Roman,Times New Roman_MSFontService,sans-serif" font-weight="700" font-size="110" transform="matrix(1 0 0 1 1170.12 1716)">Pose</text><path d="M782.5 1555.5C782.5 1475.42 847.42 1410.5 927.503 1410.5L1614.5 1410.5C1694.58 1410.5 1759.5 1475.42 1759.5 1555.5L1759.5 2135.5C1759.5 2215.58 1694.58 2280.5 1614.5 2280.5L927.503 2280.5C847.42 2280.5 782.5 2215.58 782.5 2135.5Z" stroke="#000000" stroke-width="6.875" stroke-linecap="square" stroke-miterlimit="8" stroke-dasharray="20.625 6.875" fill="none" fill-rule="evenodd"/><rect x="848" y="2559" width="819" height="344" stroke="#000000" stroke-width="10.3125" stroke-miterlimit="8" fill="#FBE3D6"/><text font-family="Times New Roman,Times New Roman_MSFontService,sans-serif" font-weight="700" font-size="110" transform="matrix(1 0 0 1 973.947 2705)">Object</text><text font-family="Times New Roman,Times New Roman_MSFontService,sans-serif" font-weight="700" font-size="110" transform="matrix(1 0 0 1 1291.34 2705)">-</text><text font-family="Times New Roman,Times New Roman_MSFontService,sans-serif" font-weight="700" font-size="110" transform="matrix(1 0 0 1 1328.01 2705)">level</text><text font-family="Times New Roman,Times New Roman_MSFontService,sans-serif" font-weight="700" font-size="110" transform="matrix(1 0 0 1 1010.04 2837)">Clustering</text><path d="M3982.5 2290.83C3982.5 2312 3892.29 2329.17 3781 2329.17 3669.71 2329.17 3579.5 2312 3579.5 2290.83" stroke="#042433" stroke-width="17.1875" stroke-miterlimit="8" fill="none" fill-rule="evenodd"/><path d="M3579.5 2290.83C3579.5 2269.66 3669.71 2252.5 3781 2252.5 3892.29 2252.5 3982.5 2269.66 3982.5 2290.83L3982.5 2444.17C3982.5 2465.34 3892.29 2482.5 3781 2482.5 3669.71 2482.5 3579.5 2465.34 3579.5 2444.17Z" stroke="#042433" stroke-width="17.1875" stroke-miterlimit="8" fill="none" fill-rule="evenodd"/><path d="M3982.5 2444.83C3982.5 2466 3892.29 2483.17 3781 2483.17 3669.71 2483.17 3579.5 2466 3579.5 2444.83" stroke="#042433" stroke-width="17.1875" stroke-miterlimit="8" fill="none" fill-rule="evenodd"/><path d="M3579.5 2444.83C3579.5 2423.66 3669.71 2406.5 3781 2406.5 3892.29 2406.5 3982.5 2423.66 3982.5 2444.83L3982.5 2598.17C3982.5 2619.34 3892.29 2636.5 3781 2636.5 3669.71 2636.5 3579.5 2619.34 3579.5 2598.17Z" stroke="#042433" stroke-width="17.1875" stroke-miterlimit="8" fill="none" fill-rule="evenodd"/><rect x="4196.5" y="1915.5" width="683" height="437" stroke="#000000" stroke-width="6.875" stroke-miterlimit="8" fill="#D9D9D9"/><text font-family="Times New Roman,Times New Roman_MSFontService,sans-serif" font-weight="700" font-size="110" transform="matrix(1 0 0 1 4297.95 2107)">Dynamic / </text><text font-family="Times New Roman,Times New Roman_MSFontService,sans-serif" font-weight="700" font-size="110" transform="matrix(1 0 0 1 4279.62 2239)">Static Map</text><rect x="4196.5" y="2532.5" width="683" height="447" stroke="#000000" stroke-width="6.875" stroke-miterlimit="8" fill="#D9D9D9"/><text font-family="Times New Roman,Times New Roman_MSFontService,sans-serif" font-weight="700" font-size="110" transform="matrix(1 0 0 1 4310.75 2664)">Temporal </text><text font-family="Times New Roman,Times New Roman_MSFontService,sans-serif" font-weight="700" font-size="110" transform="matrix(1 0 0 1 4294.3 2796)">Transition </text><text font-family="Times New Roman,Times New Roman_MSFontService,sans-serif" font-weight="700" font-size="110" transform="matrix(1 0 0 1 4427.72 2928)">Map</text><text font-family="Times New Roman,Times New Roman_MSFontService,sans-serif" font-style="italic" font-weight="700" font-size="110" transform="matrix(1 0 0 1 2338.65 928)">MTD</text><text font-family="Times New Roman,Times New Roman_MSFontService,sans-serif" font-style="italic" font-weight="700" font-size="110" transform="matrix(1 0 0 1 2583.28 928)">-</text><text font-family="Times New Roman,Times New Roman_MSFontService,sans-serif" font-style="italic" font-weight="700" font-size="110" transform="matrix(1 0 0 1 2619.95 928)">MAP</text><rect x="1931" y="1337" width="1212" height="390" stroke="#000000" stroke-width="10.3125" stroke-miterlimit="8" fill="#D9F2D0"/><text font-family="Times New Roman,Times New Roman_MSFontService,sans-serif" font-weight="700" font-size="110" transform="matrix(1 0 0 1 2158.25 1506)">Stability</text><text font-family="Times New Roman,Times New Roman_MSFontService,sans-serif" font-weight="700" font-size="110" transform="matrix(1 0 0 1 2555.28 1506)">-</text><text font-family="Times New Roman,Times New Roman_MSFontService,sans-serif" font-weight="700" font-size="110" transform="matrix(1 0 0 1 2591.95 1506)">Driven</text><text font-family="Times New Roman,Times New Roman_MSFontService,sans-serif" font-weight="700" font-size="110" transform="matrix(1 0 0 1 2184.33 1638)">Adaptive Prior</text><rect x="1931" y="1915" width="1212" height="437" stroke="#000000" stroke-width="10.3125" stroke-miterlimit="8" fill="#CAEEFB"/><text font-family="Times New Roman,Times New Roman_MSFontService,sans-serif" font-weight="700" font-size="110" transform="matrix(1 0 0 1 2138.19 2107)">Unified Bayesian </text><text font-family="Times New Roman,Times New Roman_MSFontService,sans-serif" font-weight="700" font-size="110" transform="matrix(1 0 0 1 2029.2 2239)">Measurement Update</text><path d="M1866.5 1239C1866.5 1106.73 1973.73 999.5 2106 999.5L3064 999.5C3196.27 999.5 3303.5 1106.73 3303.5 1239L3303.5 2885C3303.5 3017.27 3196.27 3124.5 3064 3124.5L2106 3124.5C1973.73 3124.5 1866.5 3017.27 1866.5 2885Z" stroke="#000000" stroke-width="6.875" stroke-linecap="square" stroke-miterlimit="8" stroke-dasharray="20.625 6.875" fill="none" fill-rule="evenodd"/><rect x="1931" y="2537" width="1212" height="391" stroke="#000000" stroke-width="10.3125" stroke-miterlimit="8" fill="#F2CFEE"/><text font-family="Times New Roman,Times New Roman_MSFontService,sans-serif" font-weight="700" font-size="110" transform="matrix(1 0 0 1 2063.57 2706)">Hierarchical Spatial </text><text font-family="Times New Roman,Times New Roman_MSFontService,sans-serif" font-weight="700" font-size="110" transform="matrix(1 0 0 1 2055.99 2838)">State Regularization</text><path d="M2130.16 1107.09C2133.9 1107.09 2137.08 1107.72 2139.7 1108.97 2142.32 1110.23 2144.59 1112.27 2146.51 1115.08L2136.58 1119.53C2135.17 1117.34 2133.65 1115.74 2132.02 1114.72 2130.39 1113.7 2128.45 1113.2 2126.21 1113.2 2123.9 1113.2 2122.08 1113.79 2120.75 1114.97 2119.41 1116.15 2118.75 1117.84 2118.75 1120.02 2118.75 1121.28 2119 1122.44 2119.49 1123.51 2119.98 1124.57 2120.86 1125.75 2122.12 1127.05 2123.38 1128.36 2125.28 1130 2127.82 1131.97 2130.97 1134.43 2133.22 1136.47 2134.58 1138.08 2135.95 1139.7 2136.98 1141.43 2137.68 1143.27 2138.39 1145.11 2138.74 1147.23 2138.74 1149.63 2138.74 1151.96 2138.18 1154.33 2137.05 1156.72 2135.93 1159.12 2134.22 1161.32 2131.93 1163.33 2129.64 1165.33 2126.77 1166.93 2123.31 1168.11 2119.85 1169.3 2115.98 1169.89 2111.7 1169.89 2107.89 1169.89 2104.65 1169.31 2101.97 1168.16 2099.29 1167 2097.31 1165.52 2096.04 1163.71 2094.77 1161.9 2094.13 1160 2094.13 1158.03 2094.13 1155.51 2094.81 1153.27 2096.18 1151.31 2097.54 1149.35 2099.43 1147.81 2101.86 1146.68 2104.28 1145.56 2106.72 1145 2109.18 1145 2111.04 1145 2112.75 1145.35 2114.32 1146.06 2115.9 1146.76 2117.45 1147.85 2118.97 1149.31L2112.5 1153.13C2111.76 1152.05 2110.96 1151.21 2110.12 1150.59 2109.28 1149.98 2108.31 1149.67 2107.2 1149.67 2106.1 1149.67 2105.08 1150.15 2104.17 1151.11 2103.26 1152.07 2102.8 1153.31 2102.8 1154.84 2102.8 1156.46 2103.26 1157.96 2104.17 1159.35 2105.08 1160.75 2106.4 1161.86 2108.12 1162.7 2109.85 1163.54 2111.85 1163.96 2114.12 1163.96 2116.67 1163.96 2118.85 1163.5 2120.68 1162.59 2122.51 1161.67 2123.88 1160.45 2124.81 1158.9 2125.74 1157.36 2126.21 1155.68 2126.21 1153.85 2126.21 1152.11 2125.85 1150.48 2125.13 1148.95 2124.41 1147.43 2123.35 1145.94 2121.96 1144.48 2120.57 1143.03 2118.49 1141.23 2115.74 1139.07 2113.34 1137.21 2111.49 1135.57 2110.17 1134.15 2108.85 1132.73 2107.87 1131.25 2107.23 1129.73 2106.58 1128.2 2106.26 1126.49 2106.26 1124.61 2106.26 1121.7 2107.3 1118.87 2109.38 1116.12 2111.46 1113.36 2114.34 1111.17 2118.01 1109.53 2121.68 1107.9 2125.73 1107.09 2130.16 1107.09Z" fill-rule="evenodd"/><text fill="#000000" fill-opacity="0" font-family="Arial,Arial_MSFontService,sans-serif" font-size="62.8008" x="2094.13" y="1162.04">𝓢</text><path d="M2160.69 1154.07 2168.54 1154.07 2166.64 1162.24 2174.59 1162.24 2173.71 1166.33 2165.69 1166.33 2162.52 1179.42C2161.97 1181.67 2161.6 1183.37 2161.39 1184.54 2161.18 1185.71 2161.08 1186.69 2161.08 1187.5 2161.08 1188.53 2161.26 1189.27 2161.63 1189.74 2162.01 1190.21 2162.55 1190.44 2163.27 1190.44 2164.25 1190.44 2165.26 1190.1 2166.3 1189.4 2167.33 1188.7 2168.45 1187.62 2169.65 1186.16L2172.17 1188.74C2169.97 1191.16 2167.94 1192.85 2166.1 1193.8 2164.26 1194.75 2162.08 1195.22 2159.57 1195.22 2157.09 1195.22 2155.18 1194.58 2153.85 1193.31 2152.52 1192.03 2151.85 1190.27 2151.85 1188.02 2151.85 1187 2151.93 1186.02 2152.08 1185.1 2152.23 1184.17 2152.55 1182.65 2153.03 1180.53L2156.4 1166.33 2151.3 1166.33 2151.92 1163.68C2153.44 1163.68 2154.6 1163.54 2155.39 1163.26 2156.17 1162.97 2156.83 1162.55 2157.37 1161.98 2157.9 1161.42 2158.42 1160.55 2158.92 1159.4 2159.42 1158.24 2160.01 1156.46 2160.69 1154.07Z" fill-rule="evenodd"/><text fill="#000000" fill-opacity="0" font-family="Arial,Arial_MSFontService,sans-serif" font-size="41.1553" x="2151.3" y="1190.08">𝒕</text><path d="M2217.47 1072.88C2223.84 1074.56 2228.73 1078.18 2232.15 1083.75 2235.56 1089.33 2237.27 1096.05 2237.27 1103.92 2237.27 1111.82 2235.57 1118.54 2232.16 1124.09 2228.76 1129.64 2223.86 1133.26 2217.47 1134.94L2216.69 1132.42C2221.73 1130.74 2225.47 1127.42 2227.93 1122.47 2230.38 1117.52 2231.61 1111.23 2231.61 1103.6 2231.61 1096.22 2230.39 1090.1 2227.94 1085.23 2225.5 1080.35 2221.72 1077.07 2216.59 1075.4ZM2173.15 1072.88 2174.03 1075.4C2168.93 1077.07 2165.15 1080.35 2162.7 1085.23 2160.24 1090.1 2159.02 1096.22 2159.02 1103.6 2159.02 1111.23 2160.24 1117.52 2162.7 1122.47 2165.15 1127.42 2168.9 1130.74 2173.94 1132.42L2173.15 1134.94C2166.76 1133.26 2161.86 1129.64 2158.46 1124.09 2155.06 1118.54 2153.36 1111.82 2153.36 1103.92 2153.36 1096.05 2155.06 1089.33 2158.48 1083.75 2161.89 1078.18 2166.78 1074.56 2173.15 1072.88Z" fill-rule="evenodd"/><path d="M2187.71 1090.06C2189.85 1090.06 2191.5 1090.65 2192.66 1091.83 2193.83 1093 2194.41 1094.49 2194.41 1096.28 2194.41 1097.37 2194.29 1098.5 2194.05 1099.68L2191.93 1109.66C2191.73 1110.81 2191.57 1111.94 2191.44 1113.03 2191.31 1114.12 2191.24 1115.09 2191.24 1115.94 2191.24 1116.77 2191.3 1117.44 2191.41 1117.97 2191.51 1118.49 2191.66 1118.75 2191.83 1118.75 2192.44 1118.75 2193.23 1118.47 2194.2 1117.9 2195.17 1117.33 2196.22 1116.55 2197.34 1115.55 2198.47 1114.54 2199.59 1113.36 2200.71 1112.01 2201.84 1110.66 2202.85 1109.2 2203.75 1107.63 2204.66 1106.06 2205.39 1104.4 2205.95 1102.64 2206.5 1100.88 2206.78 1099.11 2206.78 1097.32 2206.78 1096.45 2206.61 1095.77 2206.27 1095.29 2205.94 1094.81 2205.41 1094.58 2204.69 1094.58 2203.88 1094.58 2203.13 1094.88 2202.45 1095.47 2201.76 1096.07 2201.06 1096.88 2200.34 1097.88L2198.05 1096.05C2199.42 1094.15 2200.95 1092.68 2202.64 1091.63 2204.33 1090.58 2206.21 1090.06 2208.29 1090.06 2210.34 1090.06 2211.79 1090.59 2212.64 1091.65 2213.49 1092.7 2213.91 1094.12 2213.91 1095.88 2213.91 1096.91 2213.72 1098.09 2213.32 1099.43 2212.93 1100.77 2212.36 1102.19 2211.62 1103.67 2210.88 1105.15 2210.01 1106.68 2209.01 1108.25 2208 1109.82 2206.89 1111.34 2205.67 1112.81 2204.45 1114.29 2203.14 1115.68 2201.76 1116.98 2200.37 1118.29 2198.93 1119.43 2197.44 1120.4 2195.95 1121.37 2194.43 1122.14 2192.89 1122.71 2191.36 1123.28 2189.81 1123.56 2188.26 1123.56 2187.11 1123.56 2186.16 1123.4 2185.42 1123.09 2184.68 1122.77 2184.14 1122.32 2183.8 1121.74 2183.46 1121.17 2183.24 1120.49 2183.13 1119.72 2183.02 1118.94 2182.96 1118.1 2182.96 1117.18 2182.96 1115.92 2183.04 1114.58 2183.19 1113.17 2183.35 1111.77 2183.54 1110.35 2183.78 1108.94L2185.78 1099.68C2185.91 1099.11 2186.02 1098.59 2186.11 1098.12 2186.19 1097.66 2186.24 1097.28 2186.24 1097 2186.24 1096.34 2186.1 1095.82 2185.83 1095.44 2185.55 1095.06 2184.99 1094.87 2184.14 1094.87 2182.79 1094.87 2180.86 1096.01 2178.35 1098.3L2176.32 1096.01C2177.35 1094.73 2178.88 1093.41 2180.92 1092.07 2182.96 1090.73 2185.22 1090.06 2187.71 1090.06Z" fill-rule="evenodd"/><text fill="#000000" fill-opacity="0" font-family="Arial,Arial_MSFontService,sans-serif" font-size="33.5" x="2176.32" y="1119.37">𝒗</text><path d="M2279.08 1149.22 2334.42 1149.22 2334.42 1155.2 2279.08 1155.2ZM2279.08 1130.58 2334.42 1130.58 2334.42 1136.55 2279.08 1136.55Z" fill-rule="evenodd"/><text fill="#000000" fill-opacity="0" font-family="Arial,Arial_MSFontService,sans-serif" font-size="24.6172" x="2279.08" y="1152.12">=</text><path d="M2950.96 1100.07 2970.99 1100.07 2970.99 1185.73 2950.96 1185.73 2950.96 1182.27 2963.53 1182.27 2963.53 1103.53 2950.96 1103.53ZM2376.84 1100.07 2396.88 1100.07 2396.88 1103.53 2384.3 1103.53 2384.3 1182.27 2396.88 1182.27 2396.88 1185.73 2376.84 1185.73Z" fill-rule="evenodd"/><path d="M2434.89 1130.49C2432.91 1130.49 2430.9 1131.46 2428.85 1133.39 2426.79 1135.32 2425.16 1137.56 2423.93 1140.1 2422.7 1142.65 2421.58 1146.24 2420.56 1150.89L2420.2 1152.55C2419.72 1154.76 2419.48 1156.93 2419.48 1159.06 2419.48 1161.25 2419.85 1162.82 2420.58 1163.78 2421.31 1164.74 2422.55 1165.22 2424.29 1165.22 2425.78 1165.22 2427.15 1164.88 2428.37 1164.2 2429.6 1163.53 2430.76 1162.43 2431.86 1160.9 2432.95 1159.38 2434.01 1157.41 2435.05 1155 2436.08 1152.58 2436.97 1149.7 2437.72 1146.35 2438.47 1142.99 2438.84 1139.88 2438.84 1137 2438.84 1134.79 2438.52 1133.15 2437.88 1132.09 2437.23 1131.02 2436.24 1130.49 2434.89 1130.49ZM2415.08 1123.89C2417.56 1123.89 2419.55 1124.58 2421.03 1125.98 2422.51 1127.37 2423.25 1129.2 2423.25 1131.48 2423.25 1132.23 2423.16 1132.95 2422.98 1133.64L2423.43 1133.99C2426.19 1130.49 2428.85 1127.93 2431.43 1126.31 2434 1124.7 2436.98 1123.89 2440.37 1123.89 2443.75 1123.89 2446.38 1125.11 2448.25 1127.57 2450.12 1130.03 2451.06 1133.58 2451.06 1138.22 2451.06 1142.26 2450.48 1146.27 2449.31 1150.26 2448.14 1154.24 2446.46 1157.68 2444.28 1160.57 2442.09 1163.46 2439.34 1165.73 2436.03 1167.39 2432.72 1169.06 2428.99 1169.89 2424.83 1169.89 2422.16 1169.89 2419.58 1169.42 2417.1 1168.49L2415.39 1176.49C2415.12 1177.81 2414.93 1178.83 2414.81 1179.57 2414.69 1180.3 2414.63 1180.98 2414.63 1181.61 2414.63 1182.9 2414.97 1183.83 2415.64 1184.4 2416.31 1184.97 2417.47 1185.34 2419.12 1185.52L2418.63 1188.48 2399.94 1188.48 2411.3 1137.95C2411.75 1135.94 2411.98 1134.46 2411.98 1133.5 2411.98 1132.51 2411.81 1131.75 2411.48 1131.21 2411.15 1130.67 2410.59 1130.4 2409.78 1130.4 2408.85 1130.4 2407.85 1130.82 2406.77 1131.66 2405.69 1132.5 2404.43 1133.74 2402.99 1135.39L2399.76 1132.15C2402.75 1129.1 2405.41 1126.96 2407.73 1125.73 2410.05 1124.5 2412.5 1123.89 2415.08 1123.89Z" fill-rule="evenodd"/><text fill="#000000" fill-opacity="0" font-family="Arial,Arial_MSFontService,sans-serif" font-size="64.5977" x="2399.76" y="1180.41">𝒑</text><path d="M2468.62 1147.24 2476.47 1147.24 2474.57 1155.42 2482.52 1155.42 2481.64 1159.5 2473.62 1159.5 2470.45 1172.59C2469.9 1174.84 2469.53 1176.54 2469.32 1177.71 2469.11 1178.88 2469.01 1179.86 2469.01 1180.67 2469.01 1181.7 2469.19 1182.44 2469.57 1182.91 2469.94 1183.38 2470.48 1183.62 2471.2 1183.62 2472.18 1183.62 2473.19 1183.27 2474.23 1182.57 2475.26 1181.87 2476.38 1180.79 2477.58 1179.33L2480.1 1181.91C2477.9 1184.33 2475.87 1186.02 2474.03 1186.97 2472.19 1187.92 2470.01 1188.39 2467.5 1188.39 2465.02 1188.39 2463.11 1187.75 2461.78 1186.48 2460.45 1185.2 2459.78 1183.44 2459.78 1181.19 2459.78 1180.17 2459.86 1179.19 2460.01 1178.27 2460.17 1177.34 2460.48 1175.82 2460.96 1173.7L2464.33 1159.5 2459.23 1159.5 2459.85 1156.85C2461.38 1156.85 2462.53 1156.71 2463.32 1156.43 2464.1 1156.15 2464.76 1155.72 2465.3 1155.15 2465.83 1154.59 2466.35 1153.72 2466.85 1152.57 2467.35 1151.41 2467.94 1149.64 2468.62 1147.24Z" fill-rule="evenodd"/><text fill="#000000" fill-opacity="0" font-family="Arial,Arial_MSFontService,sans-serif" font-size="41.1553" x="2459.23" y="1183.25">𝒕</text><path d="M2493.3 1158.75 2501.16 1158.75C2501.58 1160.84 2501.79 1162.91 2501.79 1164.95 2501.79 1167.04 2501.43 1168.96 2500.71 1170.7 2499.99 1172.43 2498.84 1174.16 2497.27 1175.88 2495.7 1177.61 2493.54 1179.5 2490.78 1181.57L2488.36 1178.83C2489.88 1177.39 2490.99 1176.09 2491.68 1174.94 2492.37 1173.79 2492.86 1172.48 2493.16 1171.01 2493.46 1169.54 2493.61 1167.7 2493.61 1165.48 2493.61 1163.21 2493.51 1160.96 2493.3 1158.75Z" fill-rule="evenodd"/><text fill="#000000" fill-opacity="0" font-family="Arial,Arial_MSFontService,sans-serif" font-size="22.8203" x="2488.36" y="1178.71">,</text><path d="M2561.54 1109.56C2558.51 1109.56 2555.88 1111.17 2553.63 1114.41 2551.39 1117.64 2549.52 1122.57 2548.02 1129.19L2541.95 1156.55C2541.74 1157.5 2541.64 1158.54 2541.64 1159.64 2541.64 1161.32 2542.32 1162.67 2543.68 1163.69 2545.05 1164.71 2546.76 1165.22 2548.83 1165.22 2550.92 1165.22 2552.83 1164.47 2554.55 1162.97 2556.28 1161.47 2557.62 1159.41 2558.57 1156.79 2559.53 1154.17 2560.01 1151.32 2560.01 1148.23 2560.01 1145.06 2559.32 1142.66 2557.92 1141.02 2556.53 1139.39 2554.38 1138.29 2551.48 1137.72L2552.51 1133.14C2556.88 1132.51 2560.36 1130.69 2562.93 1127.66 2565.51 1124.64 2566.8 1120.85 2566.8 1116.3 2566.8 1114.05 2566.32 1112.36 2565.38 1111.24 2564.44 1110.12 2563.16 1109.56 2561.54 1109.56ZM2562.44 1104.89C2568.04 1104.89 2572.32 1105.9 2575.29 1107.94 2578.25 1109.98 2579.73 1112.93 2579.73 1116.79 2579.73 1121.1 2578.27 1124.84 2575.35 1128 2572.43 1131.16 2568.13 1133.62 2562.44 1135.39L2562.35 1136.02C2565.97 1137.21 2568.7 1139 2570.52 1141.36 2572.35 1143.73 2573.26 1146.6 2573.26 1149.99 2573.26 1153.85 2572.36 1157.29 2570.55 1160.3 2568.73 1163.31 2566.08 1165.66 2562.59 1167.35 2559.11 1169.04 2555.03 1169.89 2550.35 1169.89 2548.26 1169.89 2546.21 1169.68 2544.22 1169.28 2542.23 1168.88 2540.64 1168.36 2539.44 1167.73L2534.9 1188.57 2522.14 1188.57 2534.5 1132.33C2535.81 1126.37 2537.59 1121.4 2539.82 1117.42 2542.05 1113.44 2545.02 1110.35 2548.71 1108.16 2552.41 1105.98 2556.99 1104.89 2562.44 1104.89Z" fill-rule="evenodd"/><text fill="#000000" fill-opacity="0" font-family="Arial,Arial_MSFontService,sans-serif" font-size="83.6895" x="2522.14" y="1178.11">𝜷</text><path d="M2596.56 1147.24 2604.41 1147.24 2602.51 1155.42 2610.46 1155.42 2609.58 1159.5 2601.57 1159.5 2598.39 1172.59C2597.85 1174.84 2597.47 1176.54 2597.26 1177.71 2597.06 1178.88 2596.95 1179.86 2596.95 1180.67 2596.95 1181.7 2597.14 1182.44 2597.51 1182.91 2597.88 1183.38 2598.43 1183.62 2599.15 1183.62 2600.13 1183.62 2601.14 1183.27 2602.17 1182.57 2603.21 1181.87 2604.33 1180.79 2605.52 1179.33L2608.04 1181.91C2605.84 1184.33 2603.82 1186.02 2601.98 1186.97 2600.13 1187.92 2597.96 1188.39 2595.45 1188.39 2592.96 1188.39 2591.05 1187.75 2589.72 1186.48 2588.39 1185.2 2587.73 1183.44 2587.73 1181.19 2587.73 1180.17 2587.8 1179.19 2587.96 1178.27 2588.11 1177.34 2588.43 1175.82 2588.91 1173.7L2592.28 1159.5 2587.17 1159.5 2587.79 1156.85C2589.32 1156.85 2590.48 1156.71 2591.26 1156.43 2592.05 1156.15 2592.71 1155.72 2593.24 1155.15 2593.77 1154.59 2594.29 1153.72 2594.79 1152.57 2595.3 1151.41 2595.88 1149.64 2596.56 1147.24Z" fill-rule="evenodd"/><text fill="#000000" fill-opacity="0" font-family="Arial,Arial_MSFontService,sans-serif" font-size="41.1553" x="2587.17" y="1183.25">𝒕</text><path d="M2621.24 1158.75 2629.1 1158.75C2629.52 1160.84 2629.73 1162.91 2629.73 1164.95 2629.73 1167.04 2629.37 1168.96 2628.65 1170.7 2627.93 1172.43 2626.79 1174.16 2625.22 1175.88 2623.64 1177.61 2621.48 1179.5 2618.72 1181.57L2616.3 1178.83C2617.83 1177.39 2618.93 1176.09 2619.62 1174.94 2620.31 1173.79 2620.81 1172.48 2621.11 1171.01 2621.41 1169.54 2621.55 1167.7 2621.55 1165.48 2621.55 1163.21 2621.45 1160.96 2621.24 1158.75Z" fill-rule="evenodd"/><text fill="#000000" fill-opacity="0" font-family="Arial,Arial_MSFontService,sans-serif" font-size="22.8203" x="2616.3" y="1178.71">,</text><path d="M2668.77 1124.61 2711.81 1124.61 2709.88 1132.96 2698.87 1132.96 2693.84 1154.43C2693.27 1156.86 2692.99 1158.81 2692.99 1160.27 2692.99 1161.44 2693.18 1162.25 2693.57 1162.7 2693.96 1163.15 2694.51 1163.37 2695.23 1163.37 2696.13 1163.37 2697.07 1163 2698.06 1162.25 2699.05 1161.5 2700.22 1160.36 2701.57 1158.84L2704.8 1162.07C2702.17 1164.83 2699.64 1166.82 2697.23 1168.05 2694.82 1169.27 2692.36 1169.89 2689.84 1169.89 2686.88 1169.89 2684.7 1169.14 2683.31 1167.64 2681.91 1166.14 2681.22 1163.76 2681.22 1160.5 2681.22 1158.73 2681.55 1156.38 2682.21 1153.45L2682.61 1151.65C2683.87 1146.02 2685.65 1139.91 2687.96 1133.32L2687.73 1132.96 2675.87 1132.96 2672.01 1151.15C2670.48 1158.4 2669.04 1164.41 2667.7 1169.17L2653.86 1169.17 2654.49 1166.34C2656.14 1164.48 2657.81 1161.45 2659.52 1157.24 2661.23 1153.03 2662.57 1148.71 2663.56 1144.28L2666.08 1132.96 2665.18 1132.96C2663.62 1132.96 2662.34 1133.1 2661.34 1133.37 2660.34 1133.64 2659.34 1134.11 2658.35 1134.78 2657.36 1135.45 2656.17 1136.54 2654.76 1138.04L2650.98 1134.67C2653.47 1131.67 2655.51 1129.5 2657.12 1128.15 2658.72 1126.81 2660.36 1125.88 2662.04 1125.37 2663.71 1124.86 2665.96 1124.61 2668.77 1124.61Z" fill-rule="evenodd"/><text fill="#000000" fill-opacity="0" font-family="Arial,Arial_MSFontService,sans-serif" font-size="45.2812" x="2650.98" y="1164.23">𝝅</text><path d="M2725.65 1147.24 2733.5 1147.24 2731.6 1155.42 2739.55 1155.42 2738.67 1159.5 2730.66 1159.5 2727.48 1172.59C2726.94 1174.84 2726.56 1176.54 2726.35 1177.71 2726.15 1178.88 2726.04 1179.86 2726.04 1180.67 2726.04 1181.7 2726.23 1182.44 2726.6 1182.91 2726.97 1183.38 2727.52 1183.62 2728.23 1183.62 2729.22 1183.62 2730.23 1183.27 2731.26 1182.57 2732.3 1181.87 2733.41 1180.79 2734.61 1179.33L2737.13 1181.91C2734.93 1184.33 2732.91 1186.02 2731.06 1186.97 2729.22 1187.92 2727.05 1188.39 2724.54 1188.39 2722.05 1188.39 2720.14 1187.75 2718.81 1186.48 2717.48 1185.2 2716.82 1183.44 2716.82 1181.19 2716.82 1180.17 2716.89 1179.19 2717.05 1178.27 2717.2 1177.34 2717.52 1175.82 2718 1173.7L2721.36 1159.5 2716.26 1159.5 2716.88 1156.85C2718.41 1156.85 2719.57 1156.71 2720.35 1156.43 2721.14 1156.15 2721.8 1155.72 2722.33 1155.15 2722.86 1154.59 2723.38 1153.72 2723.88 1152.57 2724.39 1151.41 2724.97 1149.64 2725.65 1147.24Z" fill-rule="evenodd"/><text fill="#000000" fill-opacity="0" font-family="Arial,Arial_MSFontService,sans-serif" font-size="41.1553" x="2716.26" y="1183.25">𝒕</text><path d="M2750.33 1158.75 2758.19 1158.75C2758.61 1160.84 2758.82 1162.91 2758.82 1164.95 2758.82 1167.04 2758.46 1168.96 2757.74 1170.7 2757.02 1172.43 2755.88 1174.16 2754.31 1175.88 2752.73 1177.61 2750.57 1179.5 2747.81 1181.57L2745.39 1178.83C2746.92 1177.39 2748.02 1176.09 2748.71 1174.94 2749.4 1173.79 2749.9 1172.48 2750.2 1171.01 2750.49 1169.54 2750.64 1167.7 2750.64 1165.48 2750.64 1163.21 2750.54 1160.96 2750.33 1158.75Z" fill-rule="evenodd"/><text fill="#000000" fill-opacity="0" font-family="Arial,Arial_MSFontService,sans-serif" font-size="22.8203" x="2745.39" y="1178.71">,</text><path d="M2796.65 1113.38 2807.43 1113.38 2804.83 1124.61 2815.74 1124.61 2814.53 1130.22 2803.52 1130.22 2799.17 1148.19C2798.42 1151.27 2797.9 1153.62 2797.62 1155.22 2797.33 1156.82 2797.19 1158.18 2797.19 1159.29 2797.19 1160.69 2797.44 1161.72 2797.95 1162.36 2798.46 1163.01 2799.21 1163.33 2800.2 1163.33 2801.55 1163.33 2802.93 1162.85 2804.35 1161.89 2805.78 1160.93 2807.31 1159.45 2808.96 1157.44L2812.42 1160.99C2809.39 1164.32 2806.62 1166.63 2804.09 1167.93 2801.55 1169.24 2798.57 1169.89 2795.12 1169.89 2791.71 1169.89 2789.09 1169.01 2787.26 1167.26 2785.44 1165.51 2784.52 1163.09 2784.52 1160 2784.52 1158.6 2784.63 1157.26 2784.84 1155.98 2785.05 1154.71 2785.48 1152.62 2786.14 1149.72L2790.77 1130.22 2783.76 1130.22 2784.61 1126.58C2786.71 1126.58 2788.3 1126.39 2789.37 1126 2790.45 1125.61 2791.36 1125.03 2792.09 1124.25 2792.82 1123.47 2793.54 1122.28 2794.22 1120.7 2794.91 1119.11 2795.72 1116.67 2796.65 1113.38Z" fill-rule="evenodd"/><text fill="#000000" fill-opacity="0" font-family="Arial,Arial_MSFontService,sans-serif" font-size="56.5117" x="2783.76" y="1162.82">𝒕</text><path d="M2864.85 1158.29C2862.83 1158.29 2861.03 1159.31 2859.46 1161.35 2857.89 1163.39 2856.62 1166.13 2855.66 1169.58 2854.7 1173.03 2854.22 1176.11 2854.22 1178.84 2854.22 1180.43 2854.46 1181.62 2854.92 1182.4 2855.39 1183.19 2856.12 1183.58 2857.1 1183.58 2858.54 1183.58 2860.01 1182.88 2861.5 1181.47 2862.99 1180.07 2864.2 1178.41 2865.12 1176.52 2866.03 1174.62 2866.85 1172.02 2867.57 1168.73L2867.83 1167.52C2868.18 1165.91 2868.35 1164.29 2868.35 1162.68 2868.35 1161.24 2868.08 1160.15 2867.54 1159.41 2866.99 1158.66 2866.1 1158.29 2864.85 1158.29ZM2903.66 1154.89C2905.34 1154.89 2907.15 1155.03 2909.08 1155.3 2911.01 1155.57 2912.77 1155.94 2914.36 1156.4L2912.66 1164.22 2908.5 1164.22C2908.31 1162.19 2907.79 1160.69 2906.95 1159.73 2906.11 1158.77 2904.9 1158.29 2903.33 1158.29 2901.87 1158.29 2900.7 1158.67 2899.82 1159.42 2898.93 1160.18 2898.49 1161.19 2898.49 1162.48 2898.49 1163.62 2898.86 1164.61 2899.6 1165.46 2900.35 1166.31 2901.79 1167.38 2903.92 1168.66 2906.24 1170.04 2907.89 1171.46 2908.9 1172.92 2909.9 1174.38 2910.4 1176.09 2910.4 1178.05 2910.4 1180.28 2909.81 1182.18 2908.62 1183.75 2907.43 1185.32 2905.8 1186.48 2903.74 1187.25 2901.68 1188.01 2899.33 1188.39 2896.69 1188.39 2892.46 1188.39 2888.41 1187.87 2884.52 1186.82L2886.36 1178.71 2890.51 1178.71C2890.62 1180.67 2891.13 1182.21 2892.03 1183.32 2892.94 1184.43 2894.33 1184.99 2896.2 1184.99 2897.93 1184.99 2899.26 1184.57 2900.19 1183.73 2901.13 1182.89 2901.6 1181.71 2901.6 1180.18 2901.6 1179.26 2901.45 1178.49 2901.14 1177.86 2900.84 1177.22 2900.34 1176.61 2899.64 1176.01 2898.94 1175.41 2897.81 1174.63 2896.24 1173.67 2894.05 1172.36 2892.47 1171 2891.48 1169.6 2890.48 1168.19 2889.99 1166.61 2889.99 1164.87 2889.99 1161.66 2891.19 1159.2 2893.59 1157.48 2895.98 1155.75 2899.34 1154.89 2903.66 1154.89ZM2864.46 1154.89C2867.71 1154.89 2870.48 1155.68 2872.77 1157.25L2875.94 1154.89 2879.61 1155.42 2874.31 1177.66C2873.98 1179.04 2873.82 1180.28 2873.82 1181.39 2873.82 1182.11 2873.94 1182.67 2874.18 1183.06 2874.42 1183.45 2874.83 1183.65 2875.42 1183.65 2876.1 1183.65 2876.83 1183.34 2877.61 1182.73 2878.4 1182.12 2879.31 1181.22 2880.36 1180.02L2882.72 1182.37C2880.43 1184.66 2878.45 1186.24 2876.79 1187.1 2875.14 1187.96 2873.39 1188.39 2871.56 1188.39 2869.73 1188.39 2868.28 1187.88 2867.21 1186.87 2866.14 1185.86 2865.61 1184.52 2865.61 1182.86 2865.61 1182.32 2865.67 1181.79 2865.8 1181.29L2865.34 1181.23C2863.75 1183.1 2862.38 1184.51 2861.24 1185.46 2860.09 1186.41 2858.88 1187.14 2857.59 1187.64 2856.3 1188.14 2854.88 1188.39 2853.31 1188.39 2850.69 1188.39 2848.7 1187.5 2847.35 1185.73 2846 1183.95 2845.32 1181.36 2845.32 1177.96 2845.32 1175.01 2845.75 1172.09 2846.6 1169.19 2847.45 1166.29 2848.67 1163.78 2850.26 1161.68 2851.85 1159.58 2853.86 1157.92 2856.27 1156.71 2858.68 1155.5 2861.41 1154.89 2864.46 1154.89ZM2930.1 1147.24 2937.96 1147.24 2936.06 1155.42 2944.01 1155.42 2943.12 1159.5 2935.11 1159.5 2931.94 1172.59C2931.39 1174.84 2931.02 1176.54 2930.81 1177.71 2930.6 1178.88 2930.5 1179.86 2930.5 1180.67 2930.5 1181.7 2930.68 1182.44 2931.05 1182.91 2931.42 1183.38 2931.97 1183.62 2932.69 1183.62 2933.67 1183.62 2934.68 1183.27 2935.72 1182.57 2936.75 1181.87 2937.87 1180.79 2939.07 1179.33L2941.59 1181.91C2939.38 1184.33 2937.36 1186.02 2935.52 1186.97 2933.68 1187.92 2931.5 1188.39 2928.99 1188.39 2926.51 1188.39 2924.6 1187.75 2923.27 1186.48 2921.94 1185.2 2921.27 1183.44 2921.27 1181.19 2921.27 1180.17 2921.35 1179.19 2921.5 1178.27 2921.65 1177.34 2921.97 1175.82 2922.45 1173.7L2925.82 1159.5 2920.72 1159.5 2921.34 1156.85C2922.86 1156.85 2924.02 1156.71 2924.8 1156.43 2925.59 1156.15 2926.25 1155.72 2926.78 1155.15 2927.32 1154.59 2927.84 1153.72 2928.34 1152.57 2928.84 1151.41 2929.43 1149.64 2930.1 1147.24ZM2835.7 1141.02 2839.4 1141.02 2831.02 1177.56C2830.67 1179.09 2830.5 1180.37 2830.5 1181.39 2830.5 1182.24 2830.64 1182.83 2830.92 1183.16 2831.21 1183.48 2831.61 1183.65 2832.13 1183.65 2832.77 1183.65 2833.47 1183.35 2834.26 1182.75 2835.04 1182.15 2835.97 1181.24 2837.04 1180.02L2839.4 1182.37C2837.26 1184.55 2835.34 1186.1 2833.65 1187.02 2831.96 1187.93 2830.1 1188.39 2828.08 1188.39 2825.76 1188.39 2824.07 1187.82 2823.01 1186.69 2821.94 1185.56 2821.4 1183.84 2821.4 1181.55 2821.4 1180.27 2821.64 1178.56 2822.12 1176.42L2827.98 1150.9C2828.46 1148.81 2828.7 1147.25 2828.7 1146.22 2828.7 1145.74 2828.65 1145.37 2828.55 1145.09 2828.45 1144.82 2828.31 1144.6 2828.11 1144.42 2827.91 1144.25 2827.65 1144.11 2827.32 1144.01 2827 1143.92 2826.35 1143.8 2825.39 1143.67L2825.92 1141.54Z" fill-rule="evenodd"/><text fill="#000000" fill-opacity="0" font-family="Arial,Arial_MSFontService,sans-serif" font-size="47.3711" x="2821.4" y="1182.47">𝒍𝒂𝒔𝒕</text><path d="M2629.54 1787.74C2627.56 1787.74 2625.55 1788.71 2623.5 1790.64 2621.45 1792.57 2619.81 1794.81 2618.58 1797.36 2617.35 1799.9 2616.23 1803.5 2615.21 1808.14L2614.85 1809.8C2614.37 1812.02 2614.13 1814.19 2614.13 1816.31 2614.13 1818.5 2614.5 1820.07 2615.23 1821.03 2615.97 1821.99 2617.2 1822.47 2618.94 1822.47 2620.44 1822.47 2621.8 1822.13 2623.03 1821.46 2624.25 1820.78 2625.42 1819.68 2626.51 1818.16 2627.6 1816.63 2628.66 1814.66 2629.7 1812.25 2630.73 1809.84 2631.62 1806.96 2632.37 1803.6 2633.12 1800.25 2633.49 1797.13 2633.49 1794.26 2633.49 1792.04 2633.17 1790.4 2632.53 1789.34 2631.88 1788.28 2630.89 1787.74 2629.54 1787.74ZM2609.73 1781.14C2612.22 1781.14 2614.2 1781.84 2615.68 1783.23 2617.16 1784.62 2617.91 1786.46 2617.91 1788.73 2617.91 1789.48 2617.82 1790.2 2617.64 1790.89L2618.09 1791.25C2620.84 1787.74 2623.51 1785.18 2626.08 1783.57 2628.66 1781.95 2631.64 1781.14 2635.02 1781.14 2638.41 1781.14 2641.03 1782.37 2642.9 1784.82 2644.78 1787.28 2645.71 1790.83 2645.71 1795.47 2645.71 1799.51 2645.13 1803.53 2643.96 1807.51 2642.79 1811.49 2641.12 1814.93 2638.93 1817.82 2636.74 1820.71 2634 1822.99 2630.69 1824.65 2627.38 1826.31 2623.64 1827.14 2619.48 1827.14 2616.81 1827.14 2614.24 1826.68 2611.75 1825.75L2610.04 1833.74C2609.77 1835.06 2609.58 1836.09 2609.46 1836.82 2609.34 1837.56 2609.28 1838.24 2609.28 1838.87 2609.28 1840.15 2609.62 1841.08 2610.29 1841.65 2610.97 1842.22 2612.13 1842.59 2613.77 1842.77L2613.28 1845.74 2594.59 1845.74 2605.96 1795.2C2606.41 1793.19 2606.63 1791.71 2606.63 1790.75 2606.63 1789.77 2606.47 1789 2606.14 1788.46 2605.81 1787.92 2605.24 1787.65 2604.43 1787.65 2603.5 1787.65 2602.5 1788.07 2601.42 1788.91 2600.34 1789.75 2599.08 1790.99 2597.65 1792.64L2594.41 1789.41C2597.41 1786.35 2600.06 1784.21 2602.39 1782.98 2604.71 1781.75 2607.15 1781.14 2609.73 1781.14Z" fill-rule="evenodd"/><text fill="#000000" fill-opacity="0" font-family="Arial,Arial_MSFontService,sans-serif" font-size="64.5977" x="2594.41" y="1837.66">𝒑</text><path d="M2618.47 1759.93 2624.49 1759.93 2647.85 1774.08 2646.01 1776.91 2621.97 1765.73 2621.48 1765.73 2597.49 1776.91 2595.69 1774.08Z" fill-rule="evenodd"/><text fill="#000000" fill-opacity="0" font-family="Arial,Arial_MSFontService,sans-serif" font-size="16.9805" x="2595.69" y="1774.79">ෝ</text><path d="M2663.27 1804.49 2671.12 1804.49 2669.22 1812.67 2677.17 1812.67 2676.29 1816.76 2668.27 1816.76 2665.1 1829.84C2664.56 1832.09 2664.18 1833.8 2663.97 1834.96 2663.77 1836.13 2663.66 1837.12 2663.66 1837.92 2663.66 1838.95 2663.85 1839.7 2664.22 1840.17 2664.59 1840.63 2665.13 1840.87 2665.85 1840.87 2666.83 1840.87 2667.84 1840.52 2668.88 1839.82 2669.92 1839.12 2671.03 1838.04 2672.23 1836.58L2674.75 1839.17C2672.55 1841.59 2670.53 1843.27 2668.68 1844.22 2666.84 1845.17 2664.66 1845.65 2662.16 1845.65 2659.67 1845.65 2657.76 1845.01 2656.43 1843.73 2655.1 1842.46 2654.44 1840.69 2654.44 1838.45 2654.44 1837.42 2654.51 1836.45 2654.67 1835.52 2654.82 1834.59 2655.13 1833.07 2655.61 1830.96L2658.98 1816.76 2653.88 1816.76 2654.5 1814.11C2656.03 1814.11 2657.18 1813.97 2657.97 1813.68 2658.75 1813.4 2659.41 1812.97 2659.95 1812.41 2660.48 1811.84 2661 1810.98 2661.5 1809.82 2662 1808.67 2662.59 1806.89 2663.27 1804.49Z" fill-rule="evenodd"/><text fill="#000000" fill-opacity="0" font-family="Arial,Arial_MSFontService,sans-serif" font-size="41.1553" x="2653.88" y="1840.5">𝒕</text><path d="M11.4583-2.92876e-05 11.4585 83.9021-11.4581 83.9021-11.4583 2.92876e-05ZM34.3752 72.4436 0.000360892 141.194-34.3748 72.4438Z" transform="matrix(-1 0 0 1 2537.5 1196.5)"/><path d="M2548.96 1727.5 2548.96 1858.19 2526.04 1858.19 2526.04 1727.5ZM2571.88 1846.73 2537.5 1915.48 2503.13 1846.73Z"/><path d="M2548.96 2352.5 2548.96 2480.21 2526.04 2480.21 2526.04 2352.5ZM2571.88 2468.75 2537.5 2537.5 2503.13 2468.75Z"/><path d="M2972.07 2374.52 2992.11 2374.52 2992.11 2460.19 2972.07 2460.19 2972.07 2456.73 2984.65 2456.73 2984.65 2377.98 2972.07 2377.98ZM2583.77 2374.52 2603.8 2374.52 2603.8 2377.98 2591.22 2377.98 2591.22 2456.73 2603.8 2456.73 2603.8 2460.19 2583.77 2460.19Z" fill-rule="evenodd"/><path d="M2641.81 2404.95C2639.84 2404.95 2637.82 2405.91 2635.77 2407.84 2633.72 2409.78 2632.08 2412.01 2630.85 2414.56 2629.63 2417.11 2628.5 2420.7 2627.48 2425.34L2627.13 2427C2626.65 2429.22 2626.41 2431.39 2626.41 2433.52 2626.41 2435.7 2626.77 2437.28 2627.51 2438.23 2628.24 2439.19 2629.48 2439.67 2631.21 2439.67 2632.71 2439.67 2634.07 2439.33 2635.3 2438.66 2636.53 2437.99 2637.69 2436.89 2638.78 2435.36 2639.88 2433.83 2640.94 2431.86 2641.97 2429.45 2643.01 2427.04 2643.9 2424.16 2644.65 2420.8 2645.39 2417.45 2645.77 2414.34 2645.77 2411.46 2645.77 2409.24 2645.45 2407.6 2644.8 2406.54 2644.16 2405.48 2643.16 2404.95 2641.81 2404.95ZM2622 2398.34C2624.49 2398.34 2626.47 2399.04 2627.96 2400.43 2629.44 2401.82 2630.18 2403.66 2630.18 2405.94 2630.18 2406.68 2630.09 2407.4 2629.91 2408.09L2630.36 2408.45C2633.11 2404.95 2635.78 2402.39 2638.36 2400.77 2640.93 2399.15 2643.91 2398.34 2647.3 2398.34 2650.68 2398.34 2653.31 2399.57 2655.18 2402.03 2657.05 2404.48 2657.99 2408.03 2657.99 2412.67 2657.99 2416.72 2657.4 2420.73 2656.23 2424.71 2655.07 2428.7 2653.39 2432.13 2651.2 2435.02 2649.02 2437.91 2646.27 2440.19 2642.96 2441.85 2639.65 2443.51 2635.92 2444.34 2631.75 2444.34 2629.09 2444.34 2626.51 2443.88 2624.03 2442.95L2622.32 2450.95C2622.05 2452.26 2621.85 2453.29 2621.73 2454.02 2621.61 2454.76 2621.56 2455.44 2621.56 2456.07 2621.56 2457.36 2621.89 2458.28 2622.57 2458.85 2623.24 2459.42 2624.4 2459.8 2626.05 2459.98L2625.55 2462.94 2606.87 2462.94 2618.23 2412.4C2618.68 2410.4 2618.9 2408.92 2618.9 2407.96 2618.9 2406.97 2618.74 2406.2 2618.41 2405.67 2618.08 2405.13 2617.51 2404.86 2616.7 2404.86 2615.78 2404.86 2614.77 2405.28 2613.69 2406.11 2612.62 2406.95 2611.36 2408.2 2609.92 2409.84L2606.69 2406.61C2609.68 2403.55 2612.34 2401.41 2614.66 2400.19 2616.98 2398.96 2619.43 2398.34 2622 2398.34Z" fill-rule="evenodd"/><text fill="#000000" fill-opacity="0" font-family="Arial,Arial_MSFontService,sans-serif" font-size="64.5977" x="2606.69" y="2454.87">𝒑</text><path d="M2675.54 2421.69 2683.4 2421.69 2681.5 2429.87 2689.45 2429.87 2688.56 2433.96 2680.55 2433.96 2677.38 2447.05C2676.83 2449.29 2676.45 2451 2676.25 2452.17 2676.04 2453.33 2675.94 2454.32 2675.94 2455.13 2675.94 2456.15 2676.12 2456.9 2676.49 2457.37 2676.86 2457.84 2677.41 2458.07 2678.13 2458.07 2679.11 2458.07 2680.12 2457.72 2681.15 2457.02 2682.19 2456.33 2683.31 2455.25 2684.51 2453.79L2687.03 2456.37C2684.82 2458.79 2682.8 2460.48 2680.96 2461.43 2679.11 2462.37 2676.94 2462.85 2674.43 2462.85 2671.94 2462.85 2670.04 2462.21 2668.71 2460.93 2667.38 2459.66 2666.71 2457.9 2666.71 2455.65 2666.71 2454.63 2666.79 2453.65 2666.94 2452.72 2667.09 2451.8 2667.41 2450.27 2667.89 2448.16L2671.26 2433.96 2666.15 2433.96 2666.78 2431.31C2668.3 2431.31 2669.46 2431.17 2670.24 2430.89 2671.03 2430.6 2671.69 2430.18 2672.22 2429.61 2672.76 2429.04 2673.28 2428.18 2673.78 2427.03 2674.28 2425.87 2674.87 2424.09 2675.54 2421.69Z" fill-rule="evenodd"/><text fill="#000000" fill-opacity="0" font-family="Arial,Arial_MSFontService,sans-serif" font-size="41.1553" x="2666.15" y="2457.7">𝒕</text><path d="M2700.22 2433.2 2708.08 2433.2C2708.5 2435.3 2708.71 2437.37 2708.71 2439.4 2708.71 2441.5 2708.35 2443.42 2707.64 2445.15 2706.92 2446.89 2705.77 2448.62 2704.2 2450.34 2702.63 2452.06 2700.46 2453.96 2697.71 2456.02L2695.28 2453.28C2696.81 2451.85 2697.92 2450.55 2698.61 2449.4 2699.29 2448.24 2699.79 2446.93 2700.09 2445.47 2700.39 2444 2700.54 2442.16 2700.54 2439.94 2700.54 2437.67 2700.43 2435.42 2700.22 2433.2Z" fill-rule="evenodd"/><text fill="#000000" fill-opacity="0" font-family="Arial,Arial_MSFontService,sans-serif" font-size="22.8203" x="2695.28" y="2453.17">,</text><path d="M2768.47 2384.01C2765.44 2384.01 2762.81 2385.63 2760.56 2388.86 2758.31 2392.1 2756.44 2397.03 2754.94 2403.64L2748.88 2431C2748.67 2431.96 2748.57 2432.99 2748.57 2434.1 2748.57 2435.78 2749.25 2437.13 2750.61 2438.14 2751.97 2439.16 2753.69 2439.67 2755.75 2439.67 2757.85 2439.67 2759.76 2438.92 2761.48 2437.43 2763.2 2435.93 2764.54 2433.87 2765.5 2431.25 2766.46 2428.63 2766.94 2425.78 2766.94 2422.69 2766.94 2419.52 2766.24 2417.11 2764.85 2415.48 2763.46 2413.85 2761.31 2412.75 2758.4 2412.18L2759.44 2407.6C2763.81 2406.97 2767.28 2405.14 2769.86 2402.12 2772.43 2399.09 2773.72 2395.3 2773.72 2390.75 2773.72 2388.51 2773.25 2386.82 2772.31 2385.7 2771.36 2384.57 2770.08 2384.01 2768.47 2384.01ZM2769.36 2379.34C2774.96 2379.34 2779.25 2380.36 2782.21 2382.4 2785.18 2384.43 2786.66 2387.38 2786.66 2391.25 2786.66 2395.56 2785.2 2399.29 2782.28 2402.45 2779.36 2405.61 2775.05 2408.08 2769.36 2409.84L2769.27 2410.47C2772.9 2411.67 2775.62 2413.45 2777.45 2415.82 2779.28 2418.18 2780.19 2421.06 2780.19 2424.44 2780.19 2428.31 2779.28 2431.74 2777.47 2434.75 2775.66 2437.76 2773.01 2440.11 2769.52 2441.81 2766.03 2443.5 2761.95 2444.34 2757.28 2444.34 2755.18 2444.34 2753.14 2444.14 2751.15 2443.74 2749.16 2443.33 2747.56 2442.82 2746.36 2442.19L2741.83 2463.03 2729.07 2463.03 2741.42 2406.79C2742.74 2400.83 2744.51 2395.86 2746.75 2391.87 2748.98 2387.89 2751.94 2384.81 2755.64 2382.62 2759.34 2380.43 2763.91 2379.34 2769.36 2379.34Z" fill-rule="evenodd"/><text fill="#000000" fill-opacity="0" font-family="Arial,Arial_MSFontService,sans-serif" font-size="83.6895" x="2729.07" y="2452.57">𝜷</text><path d="M2803.49 2421.69 2811.34 2421.69 2809.44 2429.87 2817.39 2429.87 2816.51 2433.96 2808.49 2433.96 2805.32 2447.05C2804.77 2449.29 2804.4 2451 2804.19 2452.17 2803.98 2453.33 2803.88 2454.32 2803.88 2455.13 2803.88 2456.15 2804.07 2456.9 2804.44 2457.37 2804.81 2457.84 2805.35 2458.07 2806.07 2458.07 2807.05 2458.07 2808.06 2457.72 2809.1 2457.02 2810.13 2456.33 2811.25 2455.25 2812.45 2453.79L2814.97 2456.37C2812.77 2458.79 2810.74 2460.48 2808.9 2461.43 2807.06 2462.37 2804.88 2462.85 2802.38 2462.85 2799.89 2462.85 2797.98 2462.21 2796.65 2460.93 2795.32 2459.66 2794.65 2457.9 2794.65 2455.65 2794.65 2454.63 2794.73 2453.65 2794.88 2452.72 2795.04 2451.8 2795.35 2450.27 2795.83 2448.16L2799.2 2433.96 2794.1 2433.96 2794.72 2431.31C2796.25 2431.31 2797.4 2431.17 2798.19 2430.89 2798.97 2430.6 2799.63 2430.18 2800.17 2429.61 2800.7 2429.04 2801.22 2428.18 2801.72 2427.03 2802.22 2425.87 2802.81 2424.09 2803.49 2421.69Z" fill-rule="evenodd"/><text fill="#000000" fill-opacity="0" font-family="Arial,Arial_MSFontService,sans-serif" font-size="41.1553" x="2794.1" y="2457.7">𝒕</text><path d="M2828.17 2433.2 2836.03 2433.2C2836.45 2435.3 2836.66 2437.37 2836.66 2439.4 2836.66 2441.5 2836.3 2443.42 2835.58 2445.15 2834.86 2446.89 2833.71 2448.62 2832.14 2450.34 2830.57 2452.06 2828.41 2453.96 2825.65 2456.02L2823.23 2453.28C2824.75 2451.85 2825.86 2450.55 2826.55 2449.4 2827.24 2448.24 2827.73 2446.93 2828.03 2445.47 2828.33 2444 2828.48 2442.16 2828.48 2439.94 2828.48 2437.67 2828.38 2435.42 2828.17 2433.2Z" fill-rule="evenodd"/><text fill="#000000" fill-opacity="0" font-family="Arial,Arial_MSFontService,sans-serif" font-size="22.8203" x="2823.23" y="2453.17">,</text><path d="M2875.7 2399.06 2918.74 2399.06 2916.8 2407.42 2905.8 2407.42 2900.77 2428.89C2900.2 2431.32 2899.91 2433.26 2899.91 2434.73 2899.91 2435.9 2900.11 2436.71 2900.5 2437.16 2900.89 2437.61 2901.44 2437.83 2902.16 2437.83 2903.06 2437.83 2904 2437.46 2904.99 2436.71 2905.98 2435.96 2907.15 2434.82 2908.49 2433.29L2911.73 2436.53C2909.09 2439.28 2906.57 2441.27 2904.16 2442.5 2901.75 2443.73 2899.28 2444.34 2896.77 2444.34 2893.8 2444.34 2891.63 2443.59 2890.23 2442.1 2888.84 2440.6 2888.14 2438.22 2888.14 2434.95 2888.14 2433.19 2888.47 2430.84 2889.13 2427.9L2889.54 2426.11C2890.79 2420.48 2892.58 2414.37 2894.88 2407.78L2894.66 2407.42 2882.8 2407.42 2878.93 2425.61C2877.41 2432.86 2875.97 2438.86 2874.62 2443.62L2860.79 2443.62 2861.42 2440.79C2863.06 2438.94 2864.74 2435.91 2866.45 2431.7 2868.15 2427.49 2869.5 2423.17 2870.49 2418.74L2873.01 2407.42 2872.11 2407.42C2870.55 2407.42 2869.27 2407.55 2868.27 2407.82 2867.26 2408.09 2866.27 2408.56 2865.28 2409.24 2864.29 2409.91 2863.09 2411 2861.68 2412.49L2857.91 2409.12C2860.4 2406.13 2862.44 2403.96 2864.04 2402.61 2865.65 2401.26 2867.29 2400.33 2868.96 2399.83 2870.64 2399.32 2872.89 2399.06 2875.7 2399.06Z" fill-rule="evenodd"/><text fill="#000000" fill-opacity="0" font-family="Arial,Arial_MSFontService,sans-serif" font-size="45.2812" x="2857.91" y="2438.68">𝝅</text><path d="M2932.58 2421.69 2940.43 2421.69 2938.53 2429.87 2946.48 2429.87 2945.6 2433.96 2937.58 2433.96 2934.41 2447.05C2933.86 2449.29 2933.49 2451 2933.28 2452.17 2933.07 2453.33 2932.97 2454.32 2932.97 2455.13 2932.97 2456.15 2933.15 2456.9 2933.53 2457.37 2933.9 2457.84 2934.44 2458.07 2935.16 2458.07 2936.14 2458.07 2937.15 2457.72 2938.19 2457.02 2939.22 2456.33 2940.34 2455.25 2941.54 2453.79L2944.06 2456.37C2941.86 2458.79 2939.83 2460.48 2937.99 2461.43 2936.15 2462.37 2933.97 2462.85 2931.46 2462.85 2928.98 2462.85 2927.07 2462.21 2925.74 2460.93 2924.41 2459.66 2923.74 2457.9 2923.74 2455.65 2923.74 2454.63 2923.82 2453.65 2923.97 2452.72 2924.13 2451.8 2924.44 2450.27 2924.92 2448.16L2928.29 2433.96 2923.19 2433.96 2923.81 2431.31C2925.34 2431.31 2926.49 2431.17 2927.28 2430.89 2928.06 2430.6 2928.72 2430.18 2929.26 2429.61 2929.79 2429.04 2930.31 2428.18 2930.81 2427.03 2931.31 2425.87 2931.9 2424.09 2932.58 2421.69Z" fill-rule="evenodd"/><text fill="#000000" fill-opacity="0" font-family="Arial,Arial_MSFontService,sans-serif" font-size="41.1553" x="2923.19" y="2457.7">𝒕</text><path d="M2548.96 2928.56 2548.96 3011.06 2537.5 2999.6 3225.83 2999.6 3214.37 3011.06 3214.37 1128.5 3225.83 1139.96 3089.67 1139.96 3089.67 1117.04 3237.29 1117.04 3237.29 3022.52 2526.04 3022.52 2526.04 2928.56ZM3101.13 1162.88 3032.38 1128.5 3101.13 1094.12Z"/><rect x="848" y="1848" width="822" height="367" stroke="#000000" stroke-width="10.3125" stroke-miterlimit="8" fill="#D9D9D9"/><text font-family="Times New Roman,Times New Roman_MSFontService,sans-serif" font-weight="700" font-size="110" transform="matrix(1 0 0 1 948.64 2006)">LiDAR scans</text><text font-family="Times New Roman,Times New Roman_MSFontService,sans-serif" font-weight="700" font-size="110" transform="matrix(1 0 0 1 942.91 2138)">w/ timestamp</text><rect x="848" y="1447" width="822" height="284" stroke="#000000" stroke-width="10.3125" stroke-miterlimit="8" fill="#D9D9D9"/><text font-family="Times New Roman,Times New Roman_MSFontService,sans-serif" font-weight="700" font-size="110" transform="matrix(1 0 0 1 1039.16 1563)">(Aligned) </text><text font-family="Times New Roman,Times New Roman_MSFontService,sans-serif" font-weight="700" font-size="110" transform="matrix(1 0 0 1 1152.3 1695)">Pose</text><path d="M764.5 1534.5C764.5 1454.42 829.42 1389.5 909.503 1389.5L1596.5 1389.5C1676.58 1389.5 1741.5 1454.42 1741.5 1534.5L1741.5 2114.5C1741.5 2194.58 1676.58 2259.5 1596.5 2259.5L909.503 2259.5C829.42 2259.5 764.5 2194.58 764.5 2114.5Z" stroke="#000000" stroke-width="6.875" stroke-linecap="square" stroke-miterlimit="8" stroke-dasharray="20.625 6.875" fill="none" fill-rule="evenodd"/><text font-family="Times New Roman,Times New Roman_MSFontService,sans-serif" font-style="italic" font-weight="700" font-size="110" transform="matrix(1 0 0 1 1154.31 1345)">Input</text><path d="M3480.5 2055.84C3480.5 1941.33 3573.33 1848.5 3687.84 1848.5L4757.16 1848.5C4871.67 1848.5 4964.5 1941.33 4964.5 2055.84L4964.5 2885.16C4964.5 2999.67 4871.67 3092.5 4757.16 3092.5L3687.84 3092.5C3573.33 3092.5 3480.5 2999.67 3480.5 2885.16Z" stroke="#000000" stroke-width="6.875" stroke-linecap="square" stroke-miterlimit="8" stroke-dasharray="20.625 6.875" fill="none" fill-rule="evenodd"/><text font-family="Times New Roman,Times New Roman_MSFontService,sans-serif" font-style="italic" font-weight="700" font-size="110" transform="matrix(1 0 0 1 4064.04 1803)">Output</text><path d="M0-11.4583 141.873-11.4583 141.873 56.7785 130.414 45.3201 203.537 45.3201 203.537 68.2368 118.956 68.2368 118.956 0 130.414 11.4583 0 11.4583ZM192.078 22.4035 260.828 56.7785 192.078 91.1535Z" transform="matrix(1 0 0 -1 1670.5 1589.28)"/><path d="M0-11.4583 141.873-11.4583 141.873 499.252 130.414 487.793 203.537 487.793 203.537 510.71 118.956 510.71 118.956 0 130.414 11.4583 0 11.4583ZM192.078 464.877 260.828 499.252 192.078 533.627Z" transform="matrix(1 0 0 -1 1670.5 2031.75)"/><path d="M11.4582-0.0540615 12.8069 285.791-10.1095 285.899-11.4582 0.0540615ZM35.6692 274.224 1.61896 343.136-33.08 274.549Z" transform="matrix(-1 0 0 1 1260.12 2215.5)"/><path d="M1667.56 2720.04 1874.14 2721.21 1874.01 2744.12 1667.44 2742.96ZM1862.81 2698.23 1931.36 2732.99 1862.42 2766.98Z"/><rect x="3616" y="1110" width="1212" height="391" stroke="#000000" stroke-width="10.3125" stroke-miterlimit="8" fill="#FFFFCC"/><text font-family="Times New Roman,Times New Roman_MSFontService,sans-serif" font-weight="700" font-size="110" transform="matrix(1 0 0 1 3922.35 1280)">State</text><text font-family="Times New Roman,Times New Roman_MSFontService,sans-serif" font-weight="700" font-size="110" transform="matrix(1 0 0 1 4160.69 1280)">-</text><text font-family="Times New Roman,Times New Roman_MSFontService,sans-serif" font-weight="700" font-size="110" transform="matrix(1 0 0 1 4197.35 1280)">Driven</text><text font-family="Times New Roman,Times New Roman_MSFontService,sans-serif" font-weight="700" font-size="110" transform="matrix(1 0 0 1 3826.11 1412)">Map Refinement</text><path d="M0-11.4583 118.212-11.4583 118.212 755.793 106.754 744.334 255.668 744.334 255.668 767.251 95.2958 767.251 95.2958 0 106.754 11.4583 0 11.4583ZM244.21 721.418 312.96 755.793 244.21 790.168Z" transform="matrix(1 0 0 -1 3303.5 2062.29)"/><path d="M4234.06 1501.5 4234.06 1603.82 3781.5 1603.82 3792.96 1592.36 3792.96 2195.53 3770.04 2195.53 3770.04 1580.91 4222.6 1580.91 4211.14 1592.36 4211.14 1501.5ZM3815.88 2184.07 3781.5 2252.82 3747.13 2184.07Z"/><path d="M0-11.4583 118.506-11.4583 118.506 233.723 107.048 222.265 156.804 222.265 156.804 245.182 95.5895 245.182 95.5895 0 107.048 11.4583 0 11.4583ZM145.345 199.348 214.095 233.723 145.345 268.098Z" transform="matrix(1 0 0 -1 3982.5 2367.22)"/><path d="M3982.5 2356.04 4101.01 2356.04 4101.01 2755.93 4089.55 2744.48 4139.3 2744.48 4139.3 2767.39 4078.09 2767.39 4078.09 2367.5 4089.55 2378.96 3982.5 2378.96ZM4127.85 2721.56 4196.6 2755.93 4127.85 2790.31Z"/><path d="M4549.96 2352.5 4549.96 2475.06 4527.04 2475.06 4527.04 2352.5ZM4572.88 2463.6 4538.5 2532.35 4504.12 2463.6Z"/></g></svg>